<?xml version="1.0" encoding="UTF-8"?>
<!DOCTYPE svg PUBLIC "-//W3C//DTD SVG 1.1//EN" "http://www.w3.org/Graphics/SVG/1.1/DTD/svg11.dtd">
<!-- Creator: CorelDRAW 2020 (64-Bit) -->
<svg xmlns="http://www.w3.org/2000/svg" xml:space="preserve" width="1764.51mm" height="1984.1mm" version="1.1" style="shape-rendering:geometricPrecision; text-rendering:geometricPrecision; image-rendering:optimizeQuality; fill-rule:evenodd; clip-rule:evenodd"
viewBox="0 0 35937.65 40410.06"
 xmlns:xlink="http://www.w3.org/1999/xlink"
 xmlns:xodm="http://www.corel.com/coreldraw/odm/2003">
 <defs>
  <style type="text/css">
   <![CDATA[
    .str0 {stroke:white;stroke-width:190.81;stroke-miterlimit:22.9256;stroke-opacity:0.078431}
    .str1 {stroke:#373435;stroke-width:4.06;stroke-miterlimit:22.9256}
    .fil6 {fill:none}
    .fil5 {fill:none;fill-rule:nonzero}
    .fil0 {fill:#2A3F86}
    .fil9 {fill:#2E4C90}
    .fil7 {fill:#FEFEFE}
    .fil11 {fill:#FFF212}
    .fil1 {fill:#021B66;fill-rule:nonzero}
    .fil12 {fill:#2E4C90;fill-rule:nonzero}
    .fil10 {fill:#FEFEFE;fill-rule:nonzero}
    .fil4 {fill:white;fill-rule:nonzero;fill-opacity:0.078431}
    .fil8 {fill:#2E4C90;fill-rule:nonzero;fill-opacity:0.168627}
    .fil13 {fill:#2E4C90;fill-opacity:0.211765}
    .fil3 {fill:url(#id1);fill-rule:nonzero}
    .fil2 {fill:url(#id2);fill-rule:nonzero}
   ]]>
  </style>
     <clipPath id="id0">
      <path d="M-0 40410.06l35937.65 0 0 -40410.06 -35937.65 0 0 40410.06z"/>
     </clipPath>
  <linearGradient id="id1" gradientUnits="userSpaceOnUse" x1="17938.97" y1="8929.9" x2="17938.97" y2="31302.7">
   <stop offset="0" style="stop-opacity:0.0588235; stop-color:white"/>
   <stop offset="1" style="stop-opacity:0; stop-color:white"/>
  </linearGradient>
  <linearGradient id="id2" gradientUnits="userSpaceOnUse" xlink:href="#id1" x1="17938.97" y1="4552.61" x2="17938.97" y2="35804.41">
  </linearGradient>
 </defs>
 <g id="Слой_x0020_1">
  <metadata id="CorelCorpID_0Corel-Layer"/>
  <g id="_2217544304224">
   <g id="_2459664285040">
    <polygon class="fil0" points="-0,40410.06 35937.65,40410.06 35937.65,0 -0,0 "/>
    <polygon class="fil0" points="-0,40410.06 35937.65,40410.06 35937.65,0 -0,0 "/>
    <polygon class="fil0" points="-0,40410.06 35937.65,40410.06 35937.65,0 -0,0 "/>
    <g style="clip-path:url(#id0)">
     <g>
      <rect class="fil1" x="-0" width="35937.65" height="40410.06"/>
      <circle class="fil2" cx="17942.36" cy="20204.92" r="15627.32"/>
      <circle class="fil3" cx="17980.93" cy="20166.52" r="11173.23"/>
      <polygon class="fil4" points="2788.68,4735.45 5945.82,4735.45 5945.82,1578.6 2788.68,1578.6 "/>
      <polygon class="fil5 str0" points="4462.74,6218.52 7428.84,6218.52 7428.84,3252.43 4462.74,3252.43 "/>
      <path class="fil4" d="M37397.93 30281.84c-492.7,-68.54 -994.33,-39.59 -1475.67,85.62 -481.56,125.21 -933.65,343.96 -1330.6,643.92 -396.9,299.91 -730.96,675.09 -982.91,1103.94 -251.89,429.08 -416.97,903.45 -485.52,1396.15 -68.77,492.7 -39.59,994.11 85.62,1475.67 124.98,481.56 343.74,933.65 643.87,1330.6 299.68,396.9 674.86,731.02 1103.94,982.91 428.91,251.95 903.28,416.97 1396.21,485.52l522.39 -3752.03 522.67 -3752.31 -0 0z"/>
     </g>
    </g>
    <polygon class="fil6" points="-0,40410.06 35937.65,40410.06 35937.65,0 -0,0 "/>
    <polygon class="fil6" points="-0,40410.06 35937.65,40410.06 35937.65,0 -0,0 "/>
    <polygon class="fil6" points="-0,40410.06 35937.65,40410.06 35937.65,0 -0,0 "/>
   </g>
  </g>
  <g id="_2217544310176">
   <g id="_2686073151520">
    <path class="fil7 str1" d="M17756.04 15136.72c2946.2,0 5334.55,2336.44 5334.55,5218.58 0,2882.14 -2388.35,5218.58 -5334.55,5218.58 -2946.2,0 -5334.55,-2336.44 -5334.55,-5218.58 0,-2882.14 2388.37,-5218.58 5334.55,-5218.58z"/>
    <g>
     <path class="fil8" d="M19617.35 24119.36l-1012.22 -2093.89 87.65 -49.07 -262.88 -491.31 210.31 -110.56 17.56 -135.16 87.63 -12.29 0 -454.47 -122.71 -73.69 0 -110.56 -105.12 -61.42 -52.6 -122.78 -122.66 -36.89 0 -2247.81 116.81 -20.5 23.39 -57.27 140.18 -57.34 0 -425.81c0,0 -186.91,-131.05 -420.58,-123 0,-907.7 -8.8,-9.31 -8.8,-951.19l96.41 0 0 -61.49 -96.41 0 0 -743.08 61.35 0 0 -49.34 -61.35 0 0 -491.36 -61.36 -110.49 -61.31 110.49 0 491.36 -61.36 0 0 49.34 61.36 0 0 743.08 -96.41 0 0 61.49 96.41 0c0,941.88 -8.76,43.52 -8.76,951.19 -233.72,-8.07 -420.65,123 -420.65,123l0 425.81 140.25 57.34 23.39 57.27 116.79 20.5 0 2247.81 -122.64 36.89 -52.59 122.78 -105.19 61.42 0 110.56 -122.66 73.69 0 454.47 87.63 12.29 17.56 135.16 210.29 110.56 -262.89 491.31 87.65 49.07 -1012.2 2093.89 98.13 0 1118.51 -1794.99 134.79 1794.99 267.84 0 13.18 -175.49 121.61 -1619.5 1118.52 1794.99 98.17 0 -0.03 0z"/>
     <path class="fil8" d="M17192.92 19642.32l-2400.73 0 0 1130.83c-48.15,-50.17 -105.22,-96.23 -138.05,-121.52l0 -109.29 -39.23 0 0 94.6c-68.85,42.42 -413.49,269.56 -413.49,606.41 0,254.86 132.31,383.74 132.31,383.74l0 365.4 -440.92 0 -32.21 -1885.67 105.21 -244.27 -513.94 0 92.79 247.52 -70.78 3458.56 -164.5 0 0 552.16 3162.97 0 0 -551.75 -871.93 0 0 -1933.79c0,-1079.08 1474.87,-897.79 1592.49,-963l0 -1029.92 0 0zm-2615.93 3926.73l-259.52 0 0 -743.42c0,0 56.75,-148.04 129.77,-148.04 73.32,0 129.13,148.04 129.13,148.04l0.64 743.42 -0.02 0z"/>
     <path class="fil8" d="M19179.9 19642.32l2400.73 0 0 1130.83c48.15,-50.17 105.21,-96.23 138.05,-121.52l0 -109.29 39.23 0 0 94.6c68.85,42.42 413.49,269.56 413.49,606.41 0,254.86 -132.31,383.74 -132.31,383.74l0 365.4 440.92 0 32.21 -1885.67 -105.21 -244.27 513.94 0 -92.79 247.52 70.78 3458.56 164.5 0 0 552.16 -3162.98 0 0 -551.75 871.93 0 0 -1933.79c0,-1079.08 -1474.85,-897.79 -1592.49,-963l0 -1029.92 0 0zm2615.93 3926.73l259.51 0 0 -743.42c0,0 -56.74,-148.04 -129.77,-148.04 -73.32,0 -129.13,148.04 -129.13,148.04l-0.64 743.42 0.02 0z"/>
    </g>
    <path class="fil9" d="M18160.41 13991.54c3451.04,0 6248.64,2797.63 6248.64,6248.64 0,3451.03 -2797.63,6248.64 -6248.64,6248.64 -3451.03,0 -6248.64,-2797.63 -6248.64,-6248.64 0,-3451.04 2797.63,-6248.64 6248.64,-6248.64zm-44.18 1368.61c2522.59,0 4880.03,2302.21 4880.03,4824.8 0,2522.59 -2313.24,4880.03 -4835.83,4880.03 -2522.59,0 -4824.8,-2302.19 -4824.8,-4824.78 0,-2522.59 2258.01,-4880.03 4780.6,-4880.03l0 -0.02z"/>
    <path class="fil10" d="M12899.27 20962.74l60.25 345.88 -102.44 17.84 -20.86 -119.73 -363.17 63.26 -18.55 -106.43 363.17 -63.26 -20.86 -119.73 102.44 -17.86 0.02 0.02zm-289.92 930.78l-26.57 -115.12 67.06 -39.73 -39.48 -171.04 -77.68 -6.33 -26.57 -115.12 496.65 50.28 30.97 134.22 -424.38 262.86 0 -0.02zm288.49 -302.18l-181.54 -14.93 24.9 107.9 156.62 -92.97 0.02 0zm-200.18 569.24c-15.16,-44.75 -18.25,-85.77 -9.24,-123.05 8.99,-37.26 28.75,-68.44 59.22,-93.47l81.05 70.92c-35.29,31.92 -45.35,70.25 -30.17,115.03 13.71,40.49 32.74,56.63 57.04,48.4 13.64,-4.63 21.64,-14.72 23.98,-30.24 3.48,-16.39 3.99,-43.65 1.51,-81.78 -2.34,-39.14 1.49,-74.17 11.44,-105.1 12.93,-34.8 39.62,-59.06 80.13,-72.77 41.34,-14.01 79.38,-10.5 114.07,10.55 34.83,21.46 59.2,52.66 73.05,93.59 12.43,36.66 14.77,71.99 7.04,105.97 -7.73,33.98 -25.27,64.63 -52.6,91.96l-79.77 -69.22c29.05,-27.9 37.58,-59.54 25.59,-94.92 -5.04,-14.93 -12.22,-25.56 -21.51,-31.94 -9.29,-6.35 -18.82,-7.86 -28.64,-4.56 -10.66,3.6 -18.53,11.97 -23.59,25.1 -4.77,13.99 -6.35,38.75 -4.75,74.33l0.66 46.11c0.21,11.81 -1.37,26.11 -4.7,42.94 -2.48,17.95 -6.88,32.28 -13.23,42.99 -15.25,27.97 -39.48,47.6 -72.73,58.85 -42.21,14.28 -81.09,10.36 -116.63,-11.83 -34.71,-22.47 -60.44,-58.42 -77.2,-107.87l-0.04 0.02zm488.63 402.17l164.89 -74.51 44.48 98.45 -430.69 194.63 -44.48 -98.45 171.04 -77.29 -61.17 -135.36 -171.04 77.29 -44.48 -98.45 430.69 -194.63 44.48 98.45 -164.89 74.51 61.17 135.36zm172.28 432.11l-126.86 265.06 -61.45 -106.43 113.81 -240.37 -189.45 109.41 -54.02 -93.54 409.3 -236.36 54.02 93.54 -177.73 102.65 250 22.49 61.45 106.41 -279.07 -22.86 0 0zm152.12 353.38l-68.39 48.31 109.04 154.42 -84.92 59.98 -171.38 -242.66 386.05 -272.65 169.43 239.89 -84.92 59.98 -107.12 -151.66 -63.97 45.19 97.37 137.89 -83.82 59.2 -97.37 -137.89 0 0.02zm373.76 454.19l201.85 -158.38 66.7 84.99 -371.84 291.78 -50 -63.74 89.3 -301.79 -201.85 158.38 -66.7 -84.99 371.84 -291.78 50.03 63.74 -89.3 301.79 -0.02 0zm331.1 -11.65l241.77 254.59 -75.41 71.6 -83.69 -88.13 -267.31 253.85 -74.4 -78.34 267.31 -253.85 -83.69 -88.13 75.41 -71.6 0 0.02zm219.6 665.19l210.5 -241.08 81.37 71.05 -204.28 233.95c-29,33.22 -24.88,66.12 12.43,98.68 37.3,32.56 70.46,32.24 99.46,-0.99l204.28 -233.95 81.37 71.05 -210.5 241.08c-32.86,37.62 -71.65,56.06 -116.36,55.26 -45.35,-0.76 -87.86,-18.46 -127.54,-53.1 -39.66,-34.64 -62.94,-74.38 -69.79,-119.22 -6.81,-44.2 6.21,-85.11 39.07,-122.75l0 0.02zm648.89 420.99l147.67 -209.81 88.34 62.2 -272.06 386.47 -66.26 -46.63 -1.38 -314.75 -147.7 209.81 -88.34 -62.18 272.06 -386.46 66.26 46.63 1.38 314.75 0.02 -0.02zm108.24 321.14l238.67 -407.95 93.25 54.57 -238.65 407.95 -93.25 -54.54 -0.02 -0.02zm460.86 250.89l-122.73 -62.52 77.38 -491.01 105.28 53.63 -64.59 357.35 251.1 -262.31 105.28 53.63 -351.73 351.25zm422.83 -19.83l-30.4 78 176.15 68.64 -37.76 96.87 -276.8 -107.85 171.61 -440.37 273.66 106.64 -37.76 96.89 -173.01 -67.4 -28.43 72.98 157.28 61.28 -37.26 95.63 -157.28 -61.29 0 -0.02zm594.51 396.16l-111.84 -31.32 -43.95 -173.56 -49.41 -13.83 -41.87 149.53 -104.02 -29.14 127.43 -455.13 182.04 50.97c43.33,12.13 75.94,37.62 97.79,76.46 21.85,38.84 26.71,79.93 14.56,123.28 -7.66,27.31 -22.49,50.72 -44.55,70.25 -22.08,19.54 -47.48,32.28 -76.26,38.24l50.09 194.22 -0.02 0.02zm-68.92 -404.94l-78.02 -21.85 -32.76 117.04 78.02 21.85c14.31,3.99 28.13,1.79 41.48,-6.63 13.34,-8.41 22.31,-20.86 26.92,-37.33 4.61,-16.49 3.42,-31.78 -3.62,-45.9 -7.04,-14.12 -17.7,-23.18 -32.01,-27.19zm352.78 482.39c-46.06,-10.64 -82.56,-29.58 -109.55,-56.81 -26.99,-27.24 -43.1,-60.41 -48.4,-99.53l102.94 -31.66c8.6,46.8 35.93,75.5 81.99,86.14 41.66,9.63 65.39,1.92 71.17,-23.09 3.23,-14.03 -1.15,-26.14 -13.11,-36.27 -12.11,-11.58 -35.03,-26.34 -68.76,-44.3 -34.51,-18.59 -62.32,-40.26 -83.41,-64.97 -22.81,-29.28 -29.39,-64.77 -19.79,-106.43 9.81,-42.55 32.81,-73.05 68.92,-91.5 36.57,-18.34 75.91,-22.65 118.03,-12.95 37.71,8.71 69.01,25.29 93.84,49.73 24.85,24.44 41.71,55.46 50.58,93.09l-100.81 31.48c-8.46,-39.37 -30.9,-63.26 -67.29,-71.65 -15.36,-3.53 -28.18,-3.05 -38.47,1.51 -10.29,4.56 -16.6,11.88 -18.94,21.96 -2.52,10.96 0.46,22.06 8.96,33.25 9.38,11.4 29.62,25.77 60.71,43.13l39.57 23.68c10.16,6.03 21.51,14.9 34.07,26.57 13.96,11.53 23.84,22.81 29.6,33.86 15.8,27.67 19.74,58.6 11.85,92.81 -10.02,43.42 -33.82,74.42 -71.37,93.02 -37.35,17.72 -81.46,20.7 -132.34,8.96l0 -0.02zm307.91 46.88l61.49 -468.61 107.12 14.06 -61.49 468.61 -107.12 -14.06zm273.41 -436.38l350.08 26.6 -7.86 103.68 -121.2 -9.19 -27.93 367.6 -107.71 -8.19 27.93 -367.6 -121.19 -9.19 7.86 -103.68 0.02 -0.02zm718.16 34.28l122.85 2.59 -164.8 287.58 -3.85 181.59 -108.01 -2.29 3.85 -181.59 -152.47 -294.3 122.85 2.59 85.93 184.15 93.64 -180.37 0.02 0.04zm795.15 341.14c-41.16,53.05 -95.65,84.05 -163.5,92.95 -67.84,8.89 -128.49,-6.97 -181.93,-47.62 -53.47,-40.65 -84.69,-95.36 -93.73,-164.07 -9.01,-68.74 7.06,-129.63 48.22,-182.69 41.15,-53.08 95.65,-84.05 163.49,-92.97 67.82,-8.89 128.49,6.97 181.93,47.64 53.47,40.65 84.69,95.36 93.7,164.07 9.03,68.74 -7.04,129.63 -48.22,182.71l0.02 -0.02zm-332.04 -132.8c5.39,41.06 22.72,72.84 52,95.31 29.28,22.49 63.56,31.16 102.83,26 38.82,-5.09 69.47,-22.29 91.96,-51.57 22.88,-29.78 31.66,-64.97 26.32,-105.6 -5.32,-40.61 -22.88,-72.36 -52.66,-95.24 -29.28,-22.49 -63.35,-31.18 -102.16,-26.09 -39.27,5.16 -70.16,22.38 -92.65,51.65 -22.49,29.28 -31.04,64.45 -25.66,105.51l0.02 0.02zm728.4 -366.2l23.25 101.36 -174.41 39.99 20.38 88.84 171.11 -39.23 23.25 101.34 -171.11 39.23 38.79 169.14 -105.31 24.14 -105.65 -460.68 279.69 -64.13 -0 0zm563.65 19.26l-57.02 -171.73 102.53 -34.05 148.92 448.55 -102.53 34.05 -59.15 -178.15 -140.98 46.82 59.13 178.15 -102.53 34.05 -148.92 -448.55 102.53 -34.05 57.02 171.75 140.98 -46.82 0.02 -0.02zm282.26 42.71l-131.79 -291.64 98.45 -44.48 127.91 283.04c18.16,40.19 49.8,50.1 94.92,29.71 45.12,-20.38 58.6,-50.69 40.44,-90.88l-127.91 -283.04 98.45 -44.48 131.79 291.64c20.57,45.53 21.21,88.45 1.9,128.81 -19.53,40.93 -53.28,72.24 -101.29,93.93 -47.99,21.69 -93.8,26.34 -137.45,13.96 -43.03,-12.18 -74.83,-41.02 -95.42,-86.55l0 -0.02zm623.05 -675.19l93.84 -53.49 234.02 410.63 -93.84 53.49 -136.07 -238.74 -6.88 234.73 -10.57 6.01 -205.47 -113.7 136.05 238.74 -93.84 53.49 -234.02 -410.63 93.84 -53.49 215.43 118.9 7.5 -245.94 0.02 -0zm806.33 21.32l-96.25 68.53 -62.34 -46.8 -143 101.82 23.82 74.19 -96.25 68.53 -143.23 -478.22 112.21 -79.9 405.03 291.8 0 0.04zm-389.47 -151.21l55.55 173.47 90.2 -64.22 -145.75 -109.25zm543.47 -265.43l-167.64 -194.22 81.78 -70.59 308.83 357.78 -61.33 52.94 -305.65 -75.11 167.64 194.22 -81.78 70.59 -308.83 -357.78 61.33 -52.94 305.65 75.11zm579.51 -258.58c-30.91,35.74 -64.7,59.2 -101.38,70.32 -36.68,11.14 -73.55,9.9 -110.6,-3.69l20.06 -105.81c45.4,14.24 83.55,3.51 114.45,-32.26 27.97,-32.35 32.23,-56.91 12.84,-73.69 -10.89,-9.42 -23.64,-11.21 -38.2,-5.36 -15.89,5.3 -39.64,18.69 -71.28,40.12 -32.56,21.83 -64.7,36.29 -96.41,43.38 -36.55,6.49 -70.98,-4.24 -103.33,-32.21 -33.04,-28.55 -49.27,-63.12 -48.7,-103.68 0.85,-40.9 15.41,-77.7 43.67,-110.4 25.31,-29.28 54.59,-49.2 87.81,-59.75 33.22,-10.55 68.53,-10.96 105.95,-1.24l-19.26 103.84c-38.77,-10.89 -70.37,-2.2 -94.81,26.05 -10.29,11.92 -15.84,23.5 -16.62,34.71 -0.78,11.23 2.75,20.22 10.57,26.99 8.51,7.36 19.72,9.9 33.59,7.61 14.47,-2.98 36.61,-14.15 66.49,-33.54l39.43 -23.94c10.09,-6.17 23.23,-12.06 39.41,-17.7 16.71,-6.97 31.32,-10.41 43.77,-10.36 31.85,-1.03 61.03,9.93 87.58,32.88 33.73,29.14 50.03,64.65 48.91,106.54 -1.77,41.29 -19.74,81.69 -53.9,121.19l-0.04 0zm341.23 -414.3c-43.63,55.6 -98.29,87.35 -164.02,95.28 -65.44,7.59 -125.78,-10.32 -181.04,-53.67 -55.26,-43.36 -86.78,-97.58 -94.64,-162.65 -8.55,-65.64 9.1,-126.47 53.01,-182.41 26.11,-33.29 58.01,-58.05 95.63,-74.29 37.65,-16.23 76.12,-22.08 115.46,-17.54l-15.02 106.66c-20.91,-3.23 -41.27,-0.46 -61.03,8.32 -19.76,8.8 -37.16,22.77 -52.16,41.89 -26.11,33.29 -36.73,67.59 -31.82,102.9 4.54,35.03 23.64,65.75 57.27,92.14 33.63,26.39 68.02,37.65 103.13,33.73 35.47,-3.62 66.26,-22.1 92.37,-55.39 14.74,-18.78 24.05,-39.05 27.99,-60.85 3.95,-21.8 1.88,-42.14 -6.17,-61.05l100.01 -39.96c14.06,36.77 17.68,75.39 10.85,115.78 -6.81,40.42 -23.43,77.45 -49.85,111.08l0.03 0.02zm186.12 -282.79l-398.73 -253.78 58.01 -91.14 398.73 253.78 -58.01 91.14zm37.19 -419.73l72.4 42.05 94.92 -163.5 89.92 52.2 -149.17 256.9 -408.73 -237.32 147.47 -253.99 89.92 52.2 -93.22 160.56 67.73 39.32 84.76 -145.98 88.75 51.52 -84.76 145.98 -0 0.05zm235.28 -528.45l-233.52 -106.29 44.75 -98.31 430.16 195.8 -33.57 73.73 -309.04 59.63 233.52 106.29 -44.75 98.34 -430.16 -195.8 33.57 -73.73 309.04 -59.63 0 -0.02zm386.72 -372.45c-23.22,66.74 -64.63,114.52 -124.24,143.37 -59.45,28.41 -122.34,31.07 -188.65,7.98 -66.33,-23.07 -113.77,-64.13 -142.31,-123.14 -29.39,-59.31 -32.42,-122.57 -9.06,-189.72 13.89,-39.96 36.02,-73.73 66.35,-101.29 30.33,-27.56 64.84,-45.58 103.52,-54.04l20.41 105.74c-20.84,3.71 -39.18,12.95 -55.03,27.67 -15.84,14.74 -27.77,33.59 -35.74,56.54 -13.89,39.96 -12.82,75.84 3.28,107.67 15.66,31.66 43.7,54.52 84.1,68.58 40.4,14.06 76.55,13.53 108.49,-1.56 32.37,-14.95 55.51,-42.39 69.42,-82.36 7.84,-22.54 10.09,-44.75 6.74,-66.63 -3.35,-21.89 -11.88,-40.49 -25.63,-55.76l81.62 -70.25c25.24,30.22 41.18,65.55 47.83,106.02 6.67,40.44 2.96,80.84 -11.1,121.24l-0 -0.04zm-63.19 -471.83l81.62 18.71 42.26 -184.27 101.34 23.25 -66.4 289.55 -460.68 -105.65 65.64 -286.27 101.36 23.25 -41.5 180.97 76.35 17.52 37.74 -164.53 100.03 22.93 -37.72 164.53 -0.05 0.02zm293.84 -445.78c-8.39,46.52 -25.56,83.89 -51.47,112.14 -25.91,28.25 -58.28,45.97 -97.08,53.12l-36.59 -101.29c46.31,-10.85 73.69,-39.53 82.1,-86.02 7.61,-42.07 -1.21,-65.41 -26.48,-69.97 -14.17,-2.57 -26.05,2.38 -35.61,14.84 -10.98,12.66 -24.62,36.25 -40.93,70.82 -16.92,35.36 -37.21,64.17 -60.9,86.42 -28.16,24.19 -63.28,32.49 -105.35,24.88 -42.97,-7.77 -74.54,-29.26 -94.71,-64.45 -20.09,-35.65 -26.3,-74.74 -18.62,-117.27 6.88,-38.08 21.94,-70.14 45.17,-96.14 23.23,-26 53.4,-44.32 90.54,-55l36.29 99.19c-38.91,10.34 -61.7,33.91 -68.35,70.66 -2.8,15.5 -1.67,28.29 3.37,38.33 5.04,10.07 12.66,16 22.86,17.86 11.08,1.99 21.99,-1.51 32.79,-10.55 10.94,-9.9 24.32,-30.81 40.15,-62.73l21.76 -40.67c5.55,-10.43 13.85,-22.19 24.9,-35.28 10.85,-14.49 21.64,-24.9 32.4,-31.2 26.87,-17.1 57.59,-22.54 92.14,-16.3 43.86,7.93 75.96,30.19 96.34,66.81 19.49,36.45 24.6,80.38 15.29,131.76l-0.02 0.07z"/>
    <polygon class="fil11" points="23765.13,19806.69 23880.75,20045.89 24151.71,20078.31 23952.2,20258.57 24004.06,20517.83 23765.13,20390.01 23526.23,20517.83 23578.07,20258.57 23378.55,20078.31 23649.53,20045.89 "/>
    <polygon class="fil11" points="12637.67,19806.69 12753.27,20045.89 13024.25,20078.31 12824.74,20258.57 12876.58,20517.83 12637.67,20390.01 12398.75,20517.83 12450.61,20258.57 12251.09,20078.31 12522.05,20045.89 "/>
    <path class="fil12" d="M17405.32 24191.63l-417.83 0 0 -48.79 236.61 -196.72c67.59,-55.76 101.41,-103.52 101.41,-143.27 0,-33.57 -12.68,-60.28 -38.04,-80.15 -25.36,-19.88 -56.81,-29.83 -94.37,-29.83 -66.97,0 -116.1,25.56 -147.4,76.67l-55.39 -27.12c20.04,-33.04 47.89,-58.33 83.57,-75.89 35.67,-17.56 75.43,-26.34 119.25,-26.34 52.57,0 98.59,14.72 138.02,44.16 40.08,28.41 60.09,67.89 60.09,118.49 0,29.94 -10.02,59.24 -30.06,87.9 -20.04,28.66 -50.72,60.02 -92.01,94.09l-187.78 154.12 323.94 0 0 52.66 -0.02 0.02zm623.92 -66.6c-43.17,50.6 -104.23,75.89 -183.1,75.89 -78.25,0 -139.58,-25.31 -184.02,-75.89 -43.17,-51.13 -64.79,-119.27 -64.79,-204.47 0,-85.7 21.6,-153.61 64.79,-203.69 44.43,-51.13 105.79,-76.67 184.02,-76.67 78.87,0 139.9,25.56 183.1,76.67 43.81,50.07 65.73,117.99 65.73,203.69 0,85.7 -21.92,153.87 -65.73,204.47zm-318.28 -36.41c33.18,39.76 78.25,59.63 135.2,59.63 57.59,0 102.35,-19.88 134.29,-59.63 32.53,-39.23 48.81,-95.26 48.81,-168.06 0,-72.82 -16.28,-128.83 -48.81,-168.08 -31.94,-39.75 -76.67,-59.63 -134.29,-59.63 -56.95,0 -102.03,19.88 -135.2,59.63 -31.94,39.76 -47.89,95.79 -47.89,168.08 0,72.29 15.96,128.3 47.89,168.06zm993.86 103.01l-417.81 0 0 -48.79 236.61 -196.72c67.59,-55.76 101.41,-103.52 101.41,-143.27 0,-33.57 -12.68,-60.28 -38.04,-80.15 -25.36,-19.88 -56.82,-29.83 -94.37,-29.83 -66.97,0 -116.1,25.56 -147.4,76.67l-55.39 -27.12c20.04,-33.04 47.9,-58.33 83.57,-75.89 35.67,-17.56 75.43,-26.34 119.24,-26.34 52.57,0 98.59,14.72 138.02,44.16 40.08,28.41 60.09,67.89 60.09,118.49 0,29.94 -10.02,59.24 -30.06,87.9 -20.04,28.66 -50.71,60.02 -92.01,94.09l-187.8 154.12 323.94 0 0 52.66 -0.02 0.02zm609.87 0l-417.81 0 0 -48.79 236.61 -196.72c67.59,-55.76 101.41,-103.52 101.41,-143.27 0,-33.57 -12.68,-60.28 -38.04,-80.15 -25.36,-19.88 -56.82,-29.83 -94.37,-29.83 -66.97,0 -116.1,25.56 -147.4,76.67l-55.39 -27.12c20.04,-33.04 47.9,-58.33 83.57,-75.89 35.67,-17.56 75.43,-26.34 119.24,-26.34 52.57,0 98.59,14.72 138.02,44.16 40.08,28.41 60.09,67.89 60.09,118.49 0,29.94 -10.02,59.24 -30.06,87.9 -20.04,28.66 -50.71,60.02 -92.01,94.09l-187.8 154.12 323.94 0 0 52.66 -0.02 0.02z"/>
    <path class="fil13" d="M20048.09 18254.14c-0.41,-0.8 0.8,-0.14 0,0zm-1625.56 781.25l0 -106.77c0.39,3.46 0.82,5.96 1.29,7.36 13.64,-10.84 6.72,-59.5 6.6,-78.14 -0.41,-78.57 -6.12,-204.37 0.99,-273.75l470.56 0.23c2.45,45.26 -6.44,305.21 4.98,319.56 6.14,-17.77 5.36,-308.67 1.93,-362.48 -1.74,-27.38 -8.19,-28.31 10.11,-47.94 11.51,-12.34 19.6,-21.41 31.87,-31.27 0.78,0.53 1.97,0.46 2.29,1.67l33.56 33.61 7.54 -19.05c47.76,-2.15 275.22,5.85 298.35,-2.7l-2.5 -52c19.33,-7.31 314.89,-6.24 349.16,-1.47l-6.86 56.04c57.48,0.16 262.84,-7.66 301.56,1.97l-3.25 227.19c-0.14,69.68 -3.55,140.5 -0.6,210.15 0.71,16.67 -1.81,14.31 11,18.18 8.71,-14.28 13.85,-291.89 15.02,-335.36 1.33,-49.2 3.83,-320.23 10.45,-344.9 0.99,-0.5 2.55,-2.06 3.14,-1.1l13.94 -2.52c17.15,-1.15 42.32,-3.37 58.79,1.21 3.55,0.99 5.02,1.12 5.57,1.03 0.25,0.48 1.06,1.44 3.19,3.32 14.97,22.47 0.87,561.86 19.72,600.33 14.47,-20.59 -14.47,-315.89 -1.9,-354.02l332.06 -0.8c11.56,56.1 -2.32,250.8 1.22,335.34l5.04 20.89c15.11,-27.24 -10.8,-789.09 6.42,-837.95 41.02,-5.82 690.64,-0.82 765.39,-0.89 11.97,0 242.18,-6.19 251.86,4.03 11.17,11.78 3.58,537.74 3.46,623.7 -0.04,35.63 -0.07,71.24 -0.02,106.86 0.02,17.17 0.05,34.3 -0.05,51.45 -0.07,8.94 -0.69,19.37 -0.53,28.02 0.02,0.8 0.62,11.21 0.69,11.53 2.55,11.83 0.3,6.6 5.82,12.33 15.82,-39.87 -11.21,-315.73 5.8,-354.44l332.03 -0.82 -7.7 356.11c8.14,-7.77 8.35,-18.16 8.32,-31.59l2.75 -116.2c3,-87.81 0.34,-413.45 13.28,-456.58 11.69,-4.49 27.86,-2.73 41.29,-2.64 14.28,0.09 28.61,-0.3 42.83,0.02 13.99,66.95 6.24,656.85 26.6,678.4 8.94,9.47 82.7,4.06 96.82,4.01 34.3,-0.12 68.62,-0.18 102.92,-0.14l0 100.97 -3682.86 0 0.04 0zm1882.3 -779.92c44.43,27.9 82.15,70.64 65.12,129.56 -7.84,27.08 -12.38,-1.08 -14.63,37.69 -1.33,23.04 0.3,18.32 -27.08,18.36l-212.28 -0.23c-5.89,-17.56 1.22,-24.85 -5.07,-38.98 -7.66,-17.22 -12.17,0.18 -14.33,-30.42 -5.2,-73.8 61.26,-128.28 119.29,-136.03l-40.6 34.09c-27.86,26.69 -39.39,60.85 -36.96,101.82 1.9,32.42 11.6,28.16 40.26,28.71 -6.6,-34.3 -6.4,-73.96 4.52,-106.06 9.9,-29.16 23.96,-51.43 50.21,-67.38 24.74,12.2 44.73,12.04 71.58,28.89l-0.02 -0.02zm1535.36 -212.91l57.5 1.81c1.26,20.45 -14.72,33.59 -18.87,51.95 -3.83,16.99 0.3,50.42 -0.78,70.25l-82.31 0.02c-1.72,-46.54 9.49,-55.49 -11.78,-95.77 -22.17,-41.96 11.42,-28.09 56.26,-28.27l-0.02 0zm-195.71 195.16c23.89,6.1 69.49,34.78 83.18,55.92 15.09,23.29 21.85,40.38 20.93,73.48 -0.8,28.52 -5.04,20.29 -12.59,34.57 -6.31,11.92 -4.72,41.09 -6.17,33.93 -0.12,-0.51 -0.51,1.97 -0.99,4.79l-235.65 0.57c-6.17,-17.63 0.96,-24.83 -5.39,-38.75 -7.91,-17.29 -12.27,0.48 -14.47,-30.77 -5.59,-79.26 67.87,-131.26 119.59,-135.85l-10.02 8.58c-0.76,0.59 -1.7,1.21 -2.45,1.79 -42.92,32.08 -68.92,60.74 -65.3,125.34 1.84,32.37 11.35,28.61 39.53,28.64l-3.39 -56.68c0,-69.84 46.04,-105.37 53.65,-117.02 13.59,3.62 10.2,4.61 20.29,7.61 8.21,2.43 11.78,1.95 19.28,3.85l-0.05 -0.02zm-1593.57 -140.98c-3.58,16.49 0.02,50.79 -0.83,69.95l-82.79 -0.05c-0.25,-19.63 4.38,-55.64 -0.09,-71.44 -5.5,-19.37 -20.2,-28.57 -19.35,-52.66l121.79 1.4c0.94,21.55 -14.12,31.48 -18.73,52.78l0 0.02zm1827.96 80.36l0.36 67.29 -85.36 0.34 1.08 -70.14c26.37,-0.53 58.79,-4.4 83.92,2.5zm-1828.51 -2.36l0.62 69.59 -85.49 0.43 3.58 -70.78 81.3 0.76 0 0z"/>
    <path class="fil13" d="M17791.21 18932.01l0 103.38 -3601.76 0 0 -100.54 218.41 -0.02 0.6 -318.97c2.29,-0.51 3.85,-2.13 4.42,-1.17 0.6,0.99 2.36,-0.87 3.19,-1.06 17.68,-3.62 36.8,-0.94 54.75,-0.69l0.82 -335.75 68.58 -2.43 0.48 337.77 270.84 -0.23c1.65,-26.94 -5.18,-77.61 3.26,-99.99l174.64 -1.77 1.47 -159.39c-6.63,-20.2 -15.73,26.75 -15.41,-110.83 0.18,-76.58 37.76,-124.52 92.03,-166.91 20.59,-16.1 56.04,-36.62 84.12,-47 -3.37,-36.29 3.39,-18.76 5.2,-53.7 8.87,20.15 10.75,33.47 9.63,53.99 41.59,15.22 73.99,40.86 103.45,63.26 23.62,17.95 56.38,59.15 67.27,102.69 5.48,21.9 9.22,110.95 2.84,138.21 -8.87,37.92 -13.41,-21.92 -13.39,91.55 0.02,28.98 -0.6,58.49 0.34,87.4l174.73 1.29c9.26,23.48 2.5,72.27 3.74,99.55 22.84,4.47 254.72,4.24 267.82,-1.21 2.98,-55.94 2.04,-119.04 0.99,-175.14 -1.06,-56.29 2.89,-123.74 0.46,-176.38 18.07,-6.97 48.58,-5.43 68.39,-2.02l-0.11 355.74 65 0.62c5.34,45.08 -5.07,136.26 1.08,169.98 2.64,14.44 -0.39,10.07 14.08,11.23 14.99,-45.72 -7.13,-226.16 4.4,-291.61l155.24 0.74c6.33,53.88 -9.19,416.38 6.42,432.94 10.02,-12.75 5.57,-531.71 4.43,-635.82 -0.07,-5.82 -0.57,-14.65 -0.34,-20.04 0.18,-4.68 0.09,-6.33 1.1,-10.82 5.27,-23.68 75.06,-9.58 76.9,-7.82 9.52,14.65 3.39,56.75 3.39,78.3l0 257.27c-0.05,44.46 -7.91,323.51 5.57,339.21 11.78,-12.93 5.36,-225.72 5.34,-264.01l0.21 -692.66c0.02,-39.6 -3.42,-101.82 1.77,-138.53 14.01,-4.33 605.74,-6.24 651.32,-1.56 20.06,53.81 -12.86,1058.01 5.5,1096.8 13.78,-9.72 7.41,-137.72 7.38,-161.16l-0.34 -516.03 81.51 -1.03c1.74,87.72 -8.35,649.6 2.52,678.33 15.2,-9.1 7.34,-82.42 7.38,-101.91 0.23,-79.21 -6.99,-277.12 1.92,-332.29l154.71 0.94 0.94 289.94 121.06 0.05c0.25,-62.64 -0.09,-125.41 0.07,-188.19 0.05,-21.73 -4.63,-77.45 -3.44,-90.81 1.99,-22.08 28.7,-27.44 41.08,-52.5 15.57,6.49 7.02,3.39 16.65,13.53 21.76,22.95 34.92,18.59 30.13,59.24 -4.24,35.88 -1.33,88.25 -1.44,125.94 -0.09,33.98 -5.32,229.69 3.74,243.65 12.98,-17.52 -0.12,-269.76 5.07,-317.77l170.17 -1.67 0.92 -60.48c15.36,-6.4 196.42,-5.94 217.81,-1.01l0.73 61.68 80.71 -0.23c3.03,57.5 -7.45,322.57 3.53,350.01 1.79,-1.17 3.05,-1.79 3.97,-2.13l0.05 0.07zm-197.93 -570.09c68.09,0.16 118.88,74.93 106.04,150.91l-211.19 -0.76c-10.13,-76.81 34.41,-150.33 105.14,-150.15zm-549.61 -186.15l0.16 294.41c32.03,4.79 59.93,-11.56 56.15,21.19 -20.89,8.48 -126.93,4.03 -156.85,2.89l1.33 -68.51 36.91 0.37 -1.4 -250.21 63.69 -0.16 0 0.02zm-960.04 252.54l-0.83 63.51c-12.45,4.7 -115.25,5.66 -140.11,3.12 -17.54,-1.81 -5.73,2.38 -17.63,-5.27l2.62 -17.31 55.53 -1.17 -1.44 -295.35 64.27 0.09 -1.35 249.93 38.95 2.48 -0 -0.02zm-37.85 -318.85l-0.69 60.6 -62.2 -0.76 0.48 -60.55 62.41 0.71zm997.71 -0.02l-0.62 60.83 -61.81 -1.58 0.6 -59.5 61.84 0.25 -0 0zm-2502.92 122.89c-0.57,10.34 -0.21,24.67 -0.64,33.06 -12.52,6.56 -57.14,4.47 -67.8,1.9 -0.27,-11.23 0.69,-27.93 -0.32,-38.89 -2.73,-29.64 -2.82,-2.48 -12.29,-30.45l93.98 -0.62c-10.48,29.26 -11.12,1.37 -12.93,34.99z"/>
    <path class="fil10" d="M12457.46 19331.93l57.32 -339.12 100.42 16.97 -19.83 117.39 356.09 60.18 -17.63 104.34 -356.06 -60.18 -19.83 117.39 -100.44 -16.97 -0.02 -0zm576.1 -706.23c31.46,57.78 37.85,118.86 19.19,183.24 -18.66,64.38 -56.72,112.55 -114.2,144.56 -57.48,32.01 -118.83,38.54 -184.04,19.65 -65.23,-18.91 -113.56,-57.25 -145.02,-115.03 -31.45,-57.78 -37.85,-118.86 -19.19,-183.24 18.66,-64.38 56.72,-112.55 114.2,-144.56 57.48,-32.01 118.83,-38.54 184.06,-19.65 65.2,18.91 113.56,57.25 144.99,115.03zm-249.59 245.78c38.95,11.28 74.28,8.21 105.97,-9.22 31.69,-17.45 52.92,-44.8 63.74,-82.08 10.68,-36.84 7.29,-71.12 -10.13,-102.81 -17.75,-32.23 -45.88,-53.93 -84.42,-65.09 -38.54,-11.19 -73.92,-7.89 -106.15,9.86 -31.69,17.45 -52.87,44.59 -63.53,81.44 -10.8,37.28 -7.47,71.74 9.95,103.43 17.45,31.68 45.65,53.17 84.62,64.47l-0.04 0zm418.13 -515.84c-16.6,43.22 -39.96,76.05 -70.09,98.47 -30.12,22.44 -64.49,33.54 -103.15,33.34l-16.65 -104.18c46.57,-1.95 78.16,-24.53 94.76,-67.75 15.04,-39.09 10.82,-63.16 -12.66,-72.18 -13.16,-5.07 -25.5,-2.48 -36.98,7.75 -12.89,10.15 -30.33,30.38 -52.37,60.64 -22.74,30.93 -47.57,54.93 -74.42,71.99 -31.52,18.14 -66.86,19.67 -105.95,4.63 -39.92,-15.34 -66.38,-41.8 -79.33,-79.37 -12.79,-37.99 -11.6,-76.74 3.58,-116.24 13.6,-35.4 33.96,-63.46 61.06,-84.24 27.1,-20.75 59.52,-32.88 97.21,-36.34l16.74 102.1c-39.34,2.82 -65.59,21.32 -78.71,55.49 -5.55,14.42 -6.81,26.92 -3.78,37.51 3,10.59 9.24,17.72 18.71,21.37 10.3,3.94 21.46,2.57 33.48,-4.15 12.33,-7.52 29.05,-25.2 50.12,-53.01l28.39 -35.15c7.24,-9.03 17.4,-18.82 30.42,-29.42 13.09,-11.97 25.4,-19.99 36.89,-24.07 29,-11.53 59.54,-11.12 91.66,1.22 40.74,15.66 67.57,42.97 80.45,81.94 12.08,38.65 8.94,81.85 -9.42,129.61l0.05 0.05zm-68.97 -586.57l-161.11 -73.92 44.14 -96.18 420.81 193.07 -44.14 96.18 -167.12 -76.67 -60.67 132.24 167.12 76.67 -44.14 96.18 -420.81 -193.07 44.14 -96.18 161.11 73.92 60.67 -132.24zm263.73 -372.98l286.89 -23.57 -59.68 104.55 -259.56 22.4 186.1 106.25 -52.48 91.89 -402.06 -229.55 52.48 -91.89 174.62 99.69 -104.44 -222.6 59.68 -104.55 118.47 247.39 -0.02 0zm237.9 -274.72l67.34 46.82 105.74 -152.03 83.62 58.17 -166.15 238.93 -380.09 -264.35 164.28 -236.2 83.62 58.14 -103.86 149.33 62.98 43.81 94.42 -135.75 82.54 57.41 -94.42 135.75 -0 -0.02zm318.48 -458.11l-188.79 -165.93 69.86 -79.49 347.74 305.65 -52.39 59.61 -306.68 -31.8 188.76 165.93 -69.86 79.49 -347.74 -305.65 52.39 -59.61 306.68 31.8 0.02 0zm-55.21 -316.86l236.38 -249.84 73.99 70 -81.83 86.48 262.31 248.19 -72.73 76.85 -262.31 -248.19 -81.83 86.48 -73.99 -70 0 0.02zm769.1 -446.05l184.02 -141.53 24.19 31.46c41.93,54.52 58.56,111.54 49.84,171.11 -8.89,58.58 -39.57,108.03 -91.98,148.36 -56.97,43.81 -118.44,61.9 -184.43,54.25 -65.62,-7.93 -118.99,-38.63 -160.13,-92.1 -41.13,-53.49 -57.41,-112.99 -48.88,-178.53 8.55,-65.55 39.92,-119.15 94.09,-160.81 33.89,-26.07 70.94,-42.46 111.11,-49.18 40.17,-6.72 78.11,-3.48 113.81,9.65l-39.85 95.75c-18.34,-6.49 -38.47,-7.54 -60.43,-3.16 -21.94,4.35 -42.71,14.08 -62.29,29.14 -31.09,23.91 -49.04,54.13 -53.81,90.61 -4.68,35.86 5.48,70.04 30.49,102.55 24.19,31.46 54.71,49.43 91.53,53.93 36.29,3.81 71.92,-7.75 106.87,-34.64 48.24,-37.1 65,-80.04 50.3,-128.81l-98.04 75.41 -56.45 -73.39 0.04 -0.05zm328.55 -113.65l-170.49 -263.09 88.8 -57.55 165.44 255.32c23.5,36.27 55.6,41.2 96.3,14.83 40.7,-26.37 49.32,-57.71 25.82,-93.96l-165.44 -255.32 88.82 -57.55 170.49 263.09c26.62,41.09 33.54,82.56 20.75,124.47 -12.91,42.53 -40.99,77.79 -84.3,105.86 -43.29,28.06 -86.99,39.28 -131.06,33.7 -43.47,-5.46 -78.5,-28.73 -105.12,-69.81l-0 0zm568.97 -707.27l93.47 -49.61 217.05 408.95 -93.47 49.62 -126.19 -237.78 -13.66 229.64 -10.53 5.57 -197.82 -117.39 126.19 237.78 -93.47 49.62 -217.05 -408.96 93.48 -49.61 207.42 122.77 14.56 -240.6 0.02 0zm793.15 160.65l-107.48 42.92 -48.49 -58.97 -159.69 63.79 5.48 76.14 -107.48 42.92 -25.52 -488.36 125.3 -50.03 317.89 371.59 -0 0zm-335.66 -234.16l12.68 177.98 100.74 -40.24 -113.4 -137.75 -0.02 0zm594.14 -69.36l-66.72 -242.32 102.03 -28.11 122.91 446.37 -76.53 21.07 -238.9 -194.91 66.72 242.32 -102.03 28.09 -122.91 -446.37 76.51 -21.07 238.9 194.91 0.02 0.02zm266.55 148.34l-104.14 -451.12 103.13 -23.8 104.14 451.12 -103.1 23.8 -0.02 0zm96.2 -498.08l338.32 -61.95 18.34 100.19 -117.11 21.44 65.04 355.21 -104.09 19.05 -65.05 -355.21 -117.11 21.44 -18.34 -100.19 0 0.02zm875.64 352.39l-115.42 8.76 -28.59 -70.8 -171.47 13 -17.56 74.31 -115.42 8.76 121.93 -473.57 134.54 -10.2 192 449.74 0 0zm-250.09 -323.96l-41.22 173.61 108.15 -8.21 -66.93 -165.4zm679.13 310.09l-113.72 3.32 -91.71 -149.49 -50.23 1.47 4.45 152.06 -105.79 3.09 -13.57 -462.79 185.12 -5.41c44.07,-1.31 81.99,13.05 113.74,42.99 31.75,29.94 48.29,66.95 49.57,111.04 0.8,27.77 -6.26,53.99 -21.19,78.71 -14.93,24.69 -34.99,44.02 -60.16,58.01l103.47 167.03 0.02 -0.02zm-182.55 -358.59l-79.33 2.34 3.48 118.99 79.33 -2.32c14.54,-0.44 26.83,-6.54 36.84,-18.3 10.02,-11.76 14.79,-26.02 14.28,-42.76 -0.48,-16.76 -6.08,-30.7 -16.78,-41.86 -10.68,-11.14 -23.32,-16.51 -37.85,-16.1l0.02 0zm750.8 -60.8l-9.08 101.45 -174.57 -15.61 -7.96 88.93 171.27 15.32 -9.08 101.45 -171.27 -15.34 -15.16 169.3 -105.4 -9.42 41.25 -461.14 279.97 25.06 0.02 0zm438.17 538.24l-114.13 -19.28 -10.71 -75.59 -169.57 -28.66 -34.94 67.89 -114.13 -19.28 232.37 -430.28 133.02 22.49 78.04 482.74 0.05 -0.02zm-164.73 -374.63l-81.81 158.57 106.96 18.07 -25.13 -176.63 -0.02 0zm539.9 256.21l66.72 -242.32 102.03 28.11 -122.91 446.37 -76.53 -21.07 -105.44 -289.73 -66.72 242.3 -102.03 -28.09 122.91 -446.37 76.51 21.07 105.44 289.73 0.02 0zm402.93 -136.56l-117.59 341.44 156.34 53.83 -33.18 96.3 -256.4 -88.29 150.75 -437.75 100.06 34.46 0.02 0.02zm463.57 697.64l-105.21 -48.26 9.29 -75.78 -156.3 -71.72 -51.38 56.47 -105.19 -48.26 336.14 -355.17 122.64 56.26 -49.98 486.45 0 0zm-61.81 -404.58l-120.19 131.88 98.59 45.24 21.6 -177.11zm437.48 612.37l-98.79 -56.4 -0.39 -175.4 -43.65 -24.92 -75.43 132.11 -91.89 -52.48 229.55 -402.06 160.81 91.82c38.29,21.87 63.19,53.86 74.7,95.95 11.51,42.1 6.33,82.31 -15.55,120.6 -13.78,24.12 -33.47,42.83 -59.1,56.13 -25.61,13.3 -52.8,19.35 -81.58,18.16l1.31 196.46 0.02 0.02zm31.02 -401.18l-68.92 -39.34 -59.02 103.38 68.92 39.34c12.63,7.2 26.3,8.41 40.97,3.6 14.7,-4.81 26.18,-14.49 34.48,-29.05 8.32,-14.56 10.8,-29.37 7.5,-44.48 -3.32,-15.09 -11.3,-26.23 -23.94,-33.45l0 0zm260.87 410.86l181.15 -255.87 86.37 61.15 -175.79 248.33c-24.97,35.26 -17.65,66.93 21.94,94.94 39.57,28.02 71.85,24.39 96.82,-10.87l175.79 -248.33 86.37 61.15 -181.15 255.87c-28.27,39.94 -64.24,61.77 -107.9,65.44 -44.27,3.78 -87.47,-9.24 -129.56,-39.05 -42.1,-29.81 -68.74,-66.21 -79.9,-109.23 -11.03,-42.39 -2.43,-83.57 25.86,-123.51l0 -0.02zm623.44 404.58l164.14 -190.34 80.13 69.1 -302.34 350.61 -60.09 -51.84 28.89 -306.95 -164.14 190.34 -80.13 -69.1 302.37 -350.63 60.09 51.84 -28.89 306.97 -0.02 0zm21.67 307.87l318.21 -336.3 76.88 72.73 -318.19 336.3 -76.88 -72.73 -0.02 0zm318.76 336.37l-87.97 -102.32 252.77 -416.16 75.46 87.77 -191.47 299.78 325.13 -144.31 75.45 87.77 -449.4 187.48 0.02 0zm352.55 141.26l-64.56 50.55 114.2 145.8 -80.18 62.82 -179.45 -229.11 364.48 -285.49 177.41 226.5 -80.18 62.82 -112.16 -143.18 -60.39 47.32 101.96 130.16 -79.15 62 -101.96 -130.16 -0.02 -0.02zm214.6 635.73l-61.86 -95.47 80.18 -156 -27.33 -42.19 -127.66 82.72 -57.55 -88.82 388.53 -251.77 100.72 155.43c23.98,37 31.41,76.85 22.29,119.54 -9.12,42.69 -32.17,76.03 -69.17,100.01 -23.32,15.11 -49.39,22.68 -78.27,22.74 -28.87,0.05 -55.78,-7.06 -80.8,-21.32l-89.07 175.14 0 -0.02zm211.78 -342.12l-43.15 -66.6 -99.92 64.75 43.17 66.6c7.91,12.22 19.49,19.56 34.76,22.01 15.25,2.48 29.92,-0.85 43.97,-9.97 14.06,-9.12 23.09,-21.14 27.08,-36.07 3.99,-14.92 2.02,-28.5 -5.89,-40.7l-0.02 -0.02zm-108.29 556.24c-21.71,-40.88 -31.13,-80.06 -28.29,-117.5 2.84,-37.44 17.01,-70.69 42.55,-99.71l89.53 55.81c-29.1,36.41 -32.79,75.06 -11.08,115.94 19.63,37 40.56,49.62 62.75,37.83 12.45,-6.6 18.62,-17.61 18.43,-32.99 0.78,-16.39 -3.03,-42.83 -11.39,-79.3 -8.41,-37.47 -10.23,-71.95 -5.48,-103.43 7.02,-35.67 29.03,-63.35 66.03,-82.98 37.78,-20.06 75.09,-22.63 111.96,-7.75 37.05,15.27 65.5,41.61 85.36,79.01 17.77,33.5 25.61,67.29 23.48,101.36 -2.13,34.07 -14.26,66.47 -36.39,97.19l-88.02 -54.38c23.68,-31.55 26.96,-63.49 9.81,-95.81 -7.24,-13.64 -15.84,-22.79 -25.82,-27.49 -9.97,-4.7 -19.44,-4.65 -28.38,0.09 -9.75,5.16 -16.03,14.49 -18.85,27.97 -2.43,14.26 -0.05,38.45 7.09,72.61l7.89 44.48c2.04,11.39 2.77,25.47 2.2,42.25 0.44,17.75 -1.58,32.28 -6.03,43.63 -10.34,29.44 -30.68,52.23 -61.08,68.35 -38.54,20.47 -76.76,22.77 -114.61,6.92 -37.1,-16.25 -67.61,-46.98 -91.6,-92.17l-0.07 0.07zm125.55 220.88l421.93 -190.6 43.56 96.43 -421.93 190.6 -43.56 -96.43zm506.65 -6.44l129.22 318.74 -94.39 38.29 -44.73 -110.35 -334.67 135.68 -39.75 -98.06 334.67 -135.68 -44.73 -110.33 94.39 -38.29 -0 0zm-70.71 612.48l-78 25.31 57.16 176.15 -96.89 31.43 -89.81 -276.83 440.39 -142.88 88.8 273.66 -96.89 31.43 -56.13 -173.01 -72.98 23.68 51.04 157.28 -95.63 31.02 -51.04 -157.28 -0.02 0.02zm348.06 186.01l77.36 335.13 -99.25 22.9 -26.78 -116.01 -351.87 81.21 -23.8 -103.1 351.87 -81.21 -26.78 -116.01 99.25 -22.9 0 0zm-362.37 517.22l456.51 -77.17 17.63 104.34 -456.51 77.15 -17.63 -104.34 0 0.02z"/>
    <path class="fil12" d="M14004.35 19388.04l1901.17 0 0 486.31 -643.05 0 0 2917.86 -615.07 0 0 -2917.86 -643.04 0 0 -486.31zm3103.36 1507.57l861.11 0 0 1079.61c0,275.59 -77.36,487.11 -232.05,634.63 -154.69,147.51 -383.03,221.27 -684.98,221.27 -301.95,0 -530.26,-73.76 -684.98,-221.27 -154.72,-147.52 -232.05,-359.07 -232.05,-634.63l0 -1770.18c0,-275.59 77.36,-487.11 232.05,-634.63 154.69,-147.52 383.03,-221.27 684.98,-221.27 301.95,0 530.27,73.76 684.98,221.27 154.69,147.52 232.05,359.07 232.05,634.63l0 330.68 -581.53 0 0 -364.73c0,-123.19 -28.89,-209.92 -86.67,-260.18 -57.78,-50.26 -135.13,-75.39 -232.05,-75.39 -96.91,0 -174.27,25.13 -232.05,75.39 -57.78,50.26 -86.67,136.97 -86.67,260.18l0 1838.25c0,123.19 28.89,209.12 86.67,257.75 57.78,48.63 135.13,72.95 232.05,72.95 96.91,0 174.27,-24.33 232.05,-72.95 57.78,-48.63 86.67,-134.54 86.67,-257.75l0 -627.34 -279.58 0 0 -486.31 0 0.02zm1873.19 4.86l794.02 0 0 486.31 -794.02 0 0 1405.43 -615.07 0 0 -3404.17 1627.16 0 0 486.31 -1012.09 0 0 1026.12 0 -0zm1895.57 -1512.43l0 2626.08c0,123.19 28.89,209.12 86.67,257.75 57.78,48.63 135.13,72.96 232.05,72.96 96.91,0 174.27,-24.33 232.05,-72.96 57.78,-48.63 86.67,-134.54 86.67,-257.75l0 -2626.08 581.53 0 0 2592.04c0,275.59 -77.36,487.12 -232.05,634.63 -154.71,147.52 -383.03,221.27 -684.98,221.27 -301.95,0 -530.27,-73.76 -684.98,-221.27 -154.69,-147.51 -232.05,-359.07 -232.05,-634.63l0 -2592.04 615.07 0 0.02 0z"/>
   </g>
  </g>
 </g>
</svg>
